<svg width="28" height="28" viewBox="0 0 28 28" fill="none" xmlns="http://www.w3.org/2000/svg">
<path d="M28.0004 14.0156C28.0004 21.7575 21.7535 28.007 14.0149 28.007C6.27625 28.007 0.0293884 21.7575 0.0293884 14.0156C0.0293884 6.27372 6.27625 0.024231 14.0149 0.024231C21.7535 0.024231 28.0004 6.27372 28.0004 14.0156Z" fill="#FFDD67"/>
<path d="M27.9072 5.24774C27.6741 3.98851 26.9748 2.96248 25.8093 2.63601C24.5506 2.30955 23.4318 2.77593 22.3596 3.89524C21.7535 2.21627 20.8212 0.957045 19.3294 0.304114C17.8376 -0.348818 16.3458 0.117562 15.4134 1.28351C14.4345 2.4961 14.0615 4.40825 15.0871 6.88007C16.0661 9.21196 20.4016 13.8758 20.5415 14.0157C20.7279 13.9224 25.5762 10.8909 26.7417 9.39851C27.9072 7.95274 28.1402 6.50696 27.9072 5.24774ZM12.6163 1.28351C11.684 0.117562 10.1922 -0.348818 8.70039 0.304114C7.20861 0.957045 6.27624 2.21627 5.6702 3.89524C4.55136 2.82256 3.43252 2.30955 2.17382 2.68265C1.05498 3.00912 0.309088 4.03515 0.0759963 5.29438C-0.157096 6.50696 0.122615 7.99938 1.24146 9.44515C2.45353 10.8909 7.30184 13.9224 7.48832 14.0157C7.62817 13.8758 11.9637 9.21196 12.9427 6.88007C13.9683 4.40825 13.5953 2.54274 12.6163 1.28351Z" fill="#F46767"/>
<path d="M21.94 16.8606C21.94 16.4875 21.7069 16.0211 21.1009 15.8812C19.4692 15.5547 17.0917 15.2749 14.0149 15.2749C10.9381 15.2749 8.56053 15.6013 6.92888 15.8812C6.27623 16.0211 6.08975 16.4875 6.08975 16.8606C6.08975 20.2651 8.70038 23.6697 14.0149 23.6697C19.3294 23.6231 21.94 20.2185 21.94 16.8606Z" fill="#664E27"/>
<path d="M19.9354 16.9537C18.9098 16.7672 16.7653 16.4875 14.0149 16.4875C11.2644 16.4875 9.11994 16.7672 8.09433 16.9537C7.48829 17.0469 7.44168 17.28 7.48829 17.6529C7.53491 17.8394 7.53491 18.1191 7.62815 18.3988C7.67477 18.6786 7.768 18.8184 8.23419 18.7718C9.11994 18.6786 18.9564 18.6786 19.8422 18.7718C20.3083 18.8184 20.355 18.6786 20.4482 18.3988C20.4948 18.1191 20.5414 17.886 20.5881 17.6529C20.5881 17.28 20.5414 17.0469 19.9354 16.9537Z" fill="white"/>
</svg>
