<svg width="29" height="28" viewBox="0 0 29 28" fill="none" xmlns="http://www.w3.org/2000/svg">
<path d="M14.7576 28.0071C22.4896 28.0071 28.7576 21.7391 28.7576 14.0071C28.7576 6.27509 22.4896 0.00708008 14.7576 0.00708008C7.02558 0.00708008 0.757568 6.27509 0.757568 14.0071C0.757568 21.7391 7.02558 28.0071 14.7576 28.0071Z" fill="#FFDD67"/>
<path d="M9.39089 14.2871C10.6796 14.2871 11.7242 13.2424 11.7242 11.9537C11.7242 10.6651 10.6796 9.62039 9.39089 9.62039C8.10223 9.62039 7.05756 10.6651 7.05756 11.9537C7.05756 13.2424 8.10223 14.2871 9.39089 14.2871Z" fill="#664E27"/>
<path d="M20.1242 14.2871C21.4129 14.2871 22.4576 13.2424 22.4576 11.9537C22.4576 10.6651 21.4129 9.62039 20.1242 9.62039C18.8356 9.62039 17.7909 10.6651 17.7909 11.9537C17.7909 13.2424 18.8356 14.2871 20.1242 14.2871Z" fill="#664E27"/>
<path d="M17.9776 21.4738H11.5376C10.8376 21.4738 10.8376 19.6071 11.5376 19.6071H17.9309C18.6776 19.6071 18.6776 21.4738 17.9776 21.4738Z" fill="#664E27"/>
</svg>
