<svg width="29" height="28" viewBox="0 0 29 28" fill="none" xmlns="http://www.w3.org/2000/svg">
<path d="M14.4033 28.0071C22.1353 28.0071 28.4033 21.7391 28.4033 14.0071C28.4033 6.27509 22.1353 0.00708008 14.4033 0.00708008C6.67133 0.00708008 0.40332 6.27509 0.40332 14.0071C0.40332 21.7391 6.67133 28.0071 14.4033 28.0071Z" fill="#FFDD67"/>
<path d="M9.03664 12.8404C10.3253 12.8404 11.37 11.7957 11.37 10.5071C11.37 9.21841 10.3253 8.17374 9.03664 8.17374C7.74798 8.17374 6.70331 9.21841 6.70331 10.5071C6.70331 11.7957 7.74798 12.8404 9.03664 12.8404Z" fill="#664E27"/>
<path d="M19.77 12.8404C21.0586 12.8404 22.1033 11.7957 22.1033 10.5071C22.1033 9.21841 21.0586 8.17374 19.77 8.17374C18.4813 8.17374 17.4366 9.21841 17.4366 10.5071C17.4366 11.7957 18.4813 12.8404 19.77 12.8404Z" fill="#664E27"/>
<path d="M22.3366 16.8071C22.3366 16.4337 22.1033 15.9671 21.4966 15.8271C19.8633 15.5004 17.4833 15.2204 14.4033 15.2204C11.3233 15.2204 8.9433 15.5471 7.30997 15.8271C6.7033 15.9671 6.46997 16.4337 6.46997 16.8071C6.46997 20.2137 9.0833 23.6204 14.4033 23.6204C19.7233 23.6204 22.3366 20.2137 22.3366 16.8071Z" fill="#664E27"/>
<path d="M20.33 16.9471C19.3033 16.7604 17.1567 16.4804 14.4033 16.4804C11.65 16.4804 9.50332 16.7604 8.47666 16.9471C7.86999 17.0404 7.82333 17.2737 7.86999 17.6471C7.91666 17.8337 7.91666 18.1137 8.00999 18.3937C8.05666 18.6737 8.14999 18.8137 8.61666 18.7671C9.50333 18.6737 19.35 18.6737 20.2367 18.7671C20.7033 18.8137 20.75 18.6737 20.8433 18.3937C20.89 18.1137 20.9367 17.8804 20.9833 17.6471C20.9833 17.2737 20.9367 17.0404 20.33 16.9471Z" fill="white"/>
</svg>
