<svg width="28" height="28" viewBox="0 0 28 28" fill="none" xmlns="http://www.w3.org/2000/svg">
<path d="M14 28.0071C21.732 28.0071 28 21.7391 28 14.0071C28 6.27509 21.732 0.00708008 14 0.00708008C6.26801 0.00708008 0 6.27509 0 14.0071C0 21.7391 6.26801 28.0071 14 28.0071Z" fill="#FFDD67"/>
<path d="M8.63332 13.8204C9.92199 13.8204 10.9667 12.7757 10.9667 11.4871C10.9667 10.1984 9.92199 9.15375 8.63332 9.15375C7.34466 9.15375 6.29999 10.1984 6.29999 11.4871C6.29999 12.7757 7.34466 13.8204 8.63332 13.8204Z" fill="#664E27"/>
<path d="M19.3667 13.8204C20.6553 13.8204 21.7 12.7757 21.7 11.4871C21.7 10.1984 20.6553 9.15375 19.3667 9.15375C18.078 9.15375 17.0333 10.1984 17.0333 11.4871C17.0333 12.7757 18.078 13.8204 19.3667 13.8204Z" fill="#664E27"/>
<path d="M19.8801 17.8804C16.1001 20.5404 11.9001 20.4938 8.12007 17.8804C7.6534 17.5538 7.28007 18.1138 7.56007 18.6271C8.72674 20.4938 11.0134 22.2204 14.0001 22.2204C16.9867 22.2204 19.2734 20.5404 20.4401 18.6271C20.7201 18.1138 20.3467 17.5538 19.8801 17.8804Z" fill="#664E27"/>
</svg>
