<svg width="29" height="28" viewBox="0 0 29 28" fill="none" xmlns="http://www.w3.org/2000/svg">
<path d="M28.8229 14.0071C28.8229 21.7537 22.5695 28.0071 14.8229 28.0071C7.07621 28.0071 0.822876 21.7537 0.822876 14.0071C0.822876 6.26041 7.07621 0.00708008 14.8229 0.00708008C22.5695 0.00708008 28.8229 6.26041 28.8229 14.0071Z" fill="#FFDD67"/>
<path d="M22.4762 5.09374C20.5162 5.28041 18.6962 6.30708 17.5762 7.94041C17.4362 8.17374 16.5495 7.61374 16.7362 7.33375C18.0428 5.46708 20.0962 4.25374 22.3828 4.06708C22.7095 4.06708 22.7562 5.09374 22.4762 5.09374ZM12.0695 7.94041C10.9495 6.30708 9.12951 5.28041 7.16951 5.09374C6.88951 5.09374 6.93618 4.06708 7.26284 4.06708C9.54951 4.25374 11.6028 5.46708 12.9095 7.33375C13.0962 7.61374 12.2095 8.17374 12.0695 7.94041Z" fill="#917524"/>
<path d="M9.78286 17.6937C13.0495 15.4537 16.6429 15.4537 19.8629 17.6937C20.2362 17.9737 20.6095 17.5071 20.3295 17.0871C19.3495 15.5004 17.3429 14.0537 14.8229 14.0537C12.3029 14.0537 10.2962 15.5004 9.3162 17.0871C9.0362 17.5071 9.40953 17.9737 9.78286 17.6937ZM16.6429 8.87374C18.6029 12.6071 22.5695 12.6071 24.5295 8.87374C24.6229 8.68707 24.3895 8.59374 24.0629 8.40707C22.1029 9.94707 18.8829 9.80707 17.1095 8.40707C16.8295 8.64041 16.5495 8.68707 16.6429 8.87374ZM5.1162 8.87374C7.0762 12.6071 11.0429 12.6071 13.0029 8.87374C13.0962 8.68707 12.8629 8.59374 12.5362 8.40707C10.5762 9.94707 7.3562 9.80707 5.58286 8.40707C5.2562 8.64041 5.02286 8.68707 5.1162 8.87374Z" fill="#664E27"/>
<path d="M28.6829 21.1471C28.2162 19.9804 26.6762 19.3738 25.2762 19.7471C24.5296 19.9338 23.9696 20.3538 23.6896 20.8671C20.0496 20.1671 16.6896 13.6804 16.6896 13.6804C16.6896 13.6804 16.7829 18.9538 19.4429 22.0338C18.8829 21.8471 18.2762 21.8471 17.6229 21.9871C16.1762 22.3604 15.4296 23.6204 15.8962 24.7404C16.3629 25.8604 17.9029 26.5138 19.3029 26.1404C19.3962 26.0938 19.4896 26.0938 19.5829 26.0471C20.3296 27.4938 22.3362 28.2404 24.2496 27.7738C26.2562 27.2604 27.3296 25.5338 26.6762 23.9471C26.7696 23.9471 26.8629 23.9004 26.9562 23.9004C28.3562 23.5738 29.1496 22.3138 28.6829 21.1471ZM0.962906 21.1471C1.42957 19.9804 2.96957 19.3738 4.36957 19.7471C5.11624 19.9338 5.67624 20.3538 5.95624 20.8671C9.59624 20.1671 12.9562 13.6804 12.9562 13.6804C12.9562 13.6804 12.8629 18.9538 10.2029 22.0338C10.7629 21.8471 11.3696 21.8471 12.0229 21.9871C13.4696 22.3604 14.2162 23.6204 13.7496 24.7404C13.2829 25.9071 11.7429 26.5138 10.3429 26.1404C10.2496 26.0938 10.1562 26.0938 10.0629 26.0471C9.31624 27.4938 7.30957 28.2404 5.39624 27.7738C3.38957 27.2604 2.31624 25.5338 2.96957 23.9471C2.87624 23.9471 2.78291 23.9004 2.68957 23.9004C1.28957 23.5738 0.49624 22.3138 0.962906 21.1471Z" fill="#D8D8D8"/>
<path d="M27.5629 19.9804C27.1429 18.7671 25.7429 18.0671 24.3896 18.4871C23.7362 18.6738 23.2229 19.1404 22.8962 19.7004C19.5362 18.9538 16.4562 12.0471 16.4562 12.0471C16.4562 12.0471 16.5962 17.6938 19.0229 21.0071C18.5096 20.8204 17.9496 20.8204 17.3896 20.9604C16.0829 21.3804 15.3829 22.6871 15.8029 23.9004C16.2229 25.1138 17.6229 25.8138 18.9762 25.3938C19.0696 25.3471 19.1629 25.3471 19.2562 25.3004C19.9562 26.8404 21.8229 27.6804 23.5496 27.1204C25.3696 26.5604 26.3962 24.7404 25.7896 23.0138C25.8829 23.0138 25.9762 22.9671 26.0696 22.9671C27.2829 22.5471 28.0296 21.2404 27.5629 19.9804ZM2.0829 19.9804C2.5029 18.7671 3.9029 18.0671 5.25624 18.4871C5.90957 18.6738 6.4229 19.1404 6.7029 19.7004C10.0629 18.9538 13.1429 12.0471 13.1429 12.0471C13.1429 12.0471 13.0496 17.6938 10.6229 21.0071C11.1362 20.8204 11.6962 20.8204 12.2562 20.9604C13.5629 21.3804 14.3096 22.6871 13.8429 23.9004C13.4229 25.1138 12.0229 25.8138 10.6696 25.3938C10.5762 25.3471 10.4829 25.3471 10.3896 25.3004C9.68957 26.8404 7.8229 27.6804 6.09624 27.1204C4.3229 26.6071 3.3429 24.7404 3.94957 23.0138C3.85624 23.0138 3.7629 22.9671 3.66957 22.9671C2.3629 22.5471 1.61624 21.2404 2.0829 19.9804Z" fill="white"/>
</svg>
